<?xml version="1.0" encoding="UTF-8"?>
<svg version="1.1" xmlns="http://www.w3.org/2000/svg" width="512" height="492">
<path d="M0 0 C0.66 0 1.32 0 2 0 C2.09796875 0.58007812 2.1959375 1.16015625 2.296875 1.7578125 C3.77281994 9.46835244 6.50746607 14.3590771 13 19 C15.83415864 20.15142691 15.83415864 20.15142691 18.89453125 20.9296875 C20.57579102 21.41115234 20.57579102 21.41115234 22.29101562 21.90234375 C24.62578274 22.54722119 26.96171512 23.18789555 29.29882812 23.82421875 C38.40466819 26.44377847 45.60994977 29.91492465 51 38 C53.17015355 42.03028517 53.19344176 44.59344582 52 49 C50.4375 51.875 50.4375 51.875 49 54 C50.43861294 53.91253716 51.87597508 53.80434652 53.3125 53.6875 C54.11300781 53.62949219 54.91351563 53.57148437 55.73828125 53.51171875 C58.45468312 52.89712696 59.39248268 52.26168052 61 50 C62.37671928 43.74739992 60.84072149 38.14953526 57.8359375 32.65234375 C55.19157348 28.83208169 52.10355858 25.49305749 48.8347168 22.19775391 C46.00177413 19.31032213 44.1010717 16.91851987 43 13 C43.07943203 8.55180624 43.51874731 6.58256905 46.375 3.125 C49 1 49 1 52 0 C51.979375 0.60328125 51.95875 1.2065625 51.9375 1.828125 C51.9684375 3.02695313 51.9684375 3.02695313 52 4.25 C52 5.03890625 52 5.8278125 52 6.640625 C53.65564999 10.5469242 57.25660304 11.38779714 61 13 C62.34868525 13.64743337 63.6938545 14.30224923 65.03515625 14.96484375 C65.69966797 15.29033203 66.36417969 15.61582031 67.04882812 15.95117188 C67.71333984 16.27666016 68.37785156 16.60214844 69.0625 16.9375 C69.73087891 17.25912109 70.39925781 17.58074219 71.08789062 17.91210938 C77.54193403 21.09208994 83.48902973 24.37739034 87.375 30.625 C88.09816406 31.75808594 88.09816406 31.75808594 88.8359375 32.9140625 C92.71031519 39.8567393 91.94473434 49.23674287 90.05859375 56.75 C87.85687788 63.04456074 85.18014039 69.04568903 82.015625 74.9140625 C78.39464875 82.35099064 79.97153845 89.37986181 82.39453125 96.9375 C84.33988408 102.17509138 86.95945059 107.09501995 89.5 112.0625 C96.63126216 126.08114032 102.50256009 139.44670691 98.0703125 155.33203125 C93.28223853 166.14061243 83.57134677 174.10882332 74.62109375 181.5 C71.5179837 184.37131146 70.10620788 186.25654487 69.5 190.5 C69.61493449 194.37903894 70.8861926 197.24730439 72.5 200.75 C75.46807292 207.43873413 76.59008047 213.97721641 74.3359375 221.09765625 C69.32138895 231.01774142 58.62315889 235.26444129 48.69140625 238.53564453 C47.84449219 238.81263184 46.99757813 239.08961914 46.125 239.375 C32.142374 243.91918688 32.142374 243.91918688 22 254 C19.34188304 259.8700083 17.93388621 266.00796845 16.53320312 272.27661133 C15.58670335 276.33114539 14.4485868 279.61406357 12 283 C8.42898662 284.78550669 4.84413716 284.58799212 1 284 C-5.76715159 281.41791143 -11.73635733 277.97121807 -17 273 C-17.02578125 273.66386719 -17.0515625 274.32773437 -17.078125 275.01171875 C-17.34922143 279.23219726 -17.62365108 282.31699641 -19.6875 286.0625 C-22.66084728 288.55368285 -24.10681607 289.07486892 -28 289 C-30.13335064 288.14748343 -32.07869079 287.15159525 -34.0703125 286.0078125 C-36.1656201 284.91350205 -37.63323638 284.19421915 -40 284 C-42.33033628 285.28278357 -42.33033628 285.28278357 -44.625 287.1875 C-57.18253061 296.40369937 -70.79574528 297.40484702 -86 297 C-86.33 297.66 -86.66 298.32 -87 299 C-83.8313271 302.8816243 -80.58521694 306.55993298 -76.9375 310 C-76.30714844 310.598125 -75.67679687 311.19625 -75.02734375 311.8125 C-73.04011388 313.25151923 -73.04011388 313.25151923 -70.59375 312.70703125 C-69.7378125 312.47371094 -68.881875 312.24039062 -68 312 C-62.73796483 311.53277417 -58.39755632 311.33933701 -53.5625 313.625 C-49.93793937 316.98434888 -47.56466426 320.30600721 -46 325 C-45.96045766 327.33299825 -45.95598268 329.66708189 -46 332 C-39.94159606 334.07353673 -33.86239358 335.99132591 -27.6875 337.6875 C-26.92244141 337.91244141 -26.15738281 338.13738281 -25.36914062 338.36914062 C-13.83447336 341.51322143 -3.56941931 339.85777216 7.8125 336.8125 C9.03775391 336.49297363 10.26300781 336.17344727 11.52539062 335.84423828 C15.02382727 334.91951889 18.51338442 333.96824222 22 333 C22.88478027 332.75523926 23.76956055 332.51047852 24.68115234 332.25830078 C34.19494912 329.77001372 34.19494912 329.77001372 41 323 C42.08014417 320.59258753 42.08014417 320.59258753 42.75 318.1875 C42.99234375 317.39730469 43.2346875 316.60710937 43.484375 315.79296875 C43.65453125 315.20128906 43.8246875 314.60960937 44 314 C47.25 313.6875 47.25 313.6875 51 314 C52.34423339 315.65788785 53.67618483 317.32576317 55 319 C57.12605952 319.87381846 57.12605952 319.87381846 59.5 320.5 C62.62559113 321.43201317 64.01493299 322.01274767 66.5625 324.1875 C68.82415894 328.61248489 68.68265647 332.47417107 67.375 337.3125 C65.26866703 339.89754501 63.08478675 340.75550889 60 342 C57.25112881 342.03404175 54.66589084 341.94430228 51.9375 341.75 C44.61076664 341.48771005 38.68436898 342.6889327 31.8125 345.1875 C5.04917836 354.86280511 -20.70490689 357.68220466 -48.02148438 348.30615234 C-51.50900946 347.05324 -51.50900946 347.05324 -54.96875 347.8984375 C-55.4740625 348.38570313 -55.979375 348.87296875 -56.5 349.375 C-59.16018453 351.54827575 -59.91295856 351.98756551 -63.5 352.5 C-73.40512709 351.08498184 -77.79630299 345.5818018 -83.61230469 337.85913086 C-84.07024414 337.24561768 -84.52818359 336.63210449 -85 336 C-85.40726318 336.44279297 -85.81452637 336.88558594 -86.23413086 337.34179688 C-101.20669506 353.57949945 -101.20669506 353.57949945 -109 360 C-106.59843034 362.40156966 -104.26348166 363.37501905 -101.1875 364.8125 C-92.83108108 368.95559846 -92.83108108 368.95559846 -90 373 C-89.25 376 -89.25 376 -90 379 C-94.06446399 383.0213397 -98.52448789 385.12231691 -104.25 385.3125 C-104.97703125 385.34988281 -105.7040625 385.38726562 -106.453125 385.42578125 C-110.1948932 384.80024025 -112.78136559 382.99005811 -116 381 C-116.20753906 382.10214844 -116.41507812 383.20429688 -116.62890625 384.33984375 C-125.43120467 428.66675978 -158.10480728 459.41122439 -193.02539062 485.50976562 C-194.33291147 486.49654941 -195.62389461 487.50566947 -196.89648438 488.53710938 C-201.25829141 491.955823 -201.25829141 491.955823 -204.4921875 492.1484375 C-208.13176711 490.48171413 -211.01700669 488.123598 -214.125 485.625 C-227.63419918 475.20281514 -241.82093028 467.8511856 -257.62084961 461.49438477 C-264.64481878 458.64513045 -271.02401078 455.74867474 -277 451 C-277.62003906 450.50757813 -278.24007812 450.01515625 -278.87890625 449.5078125 C-287.49607705 441.75814212 -293.01188268 430.4335552 -298.0625 420.1875 C-298.45679199 419.41180664 -298.85108398 418.63611328 -299.25732422 417.83691406 C-302.3701246 411.28790546 -303.20725837 405.7153265 -300.94140625 398.7421875 C-300.48636719 397.79601562 -300.03132813 396.84984375 -299.5625 395.875 C-296.40285389 388.74554212 -295.13840099 383.4552904 -297.5859375 375.9296875 C-299.76447712 371.41613857 -302.82322942 367.64344369 -305.86791992 363.68310547 C-310.05571663 358.15384512 -312.87435754 352.62813967 -315 346 C-315.24234375 345.28070313 -315.4846875 344.56140625 -315.734375 343.8203125 C-317.79210829 336.45140275 -317.16735859 328.57762499 -317 321 C-317.94875 320.9484375 -318.8975 320.896875 -319.875 320.84375 C-347.40843053 318.77382664 -378.50039851 305.681283 -397.765625 285.47265625 C-399 284 -399 284 -401 281 C-401.9075 280.5875 -402.815 280.175 -403.75 279.75 C-408.41899615 277.23592515 -411.81546302 274.12692288 -413.7265625 269.08203125 C-414.06790594 266.63898746 -413.91527184 265.30528749 -413 263 C-410.05161656 259.48741973 -406.63990323 256.76970778 -403 254 C-402.13890625 253.33355469 -401.2778125 252.66710937 -400.390625 251.98046875 C-393.28249724 246.73767265 -386.99665134 243.43770929 -378 244 C-379.34949479 248.26971302 -381.03269771 250.12123822 -384.5625 252.8125 C-388.57896316 256.2338074 -388.57896316 256.2338074 -390.25 261.0625 C-389.96012301 265.62806262 -389.44824234 268.1116151 -387 272 C-384.22362198 274.42401494 -381.21041893 276.20523665 -378 278 C-377.16855469 278.48210937 -376.33710938 278.96421875 -375.48046875 279.4609375 C-357.97152182 288.92929507 -336.69341533 294.5301149 -316.953125 296.5703125 C-313 297 -313 297 -311 298 C-310.773125 297.319375 -310.54625 296.63875 -310.3125 295.9375 C-308.64427643 292.20385676 -306.44270392 289.27836579 -304 286 C-304.83402344 285.32195312 -305.66804688 284.64390625 -306.52734375 283.9453125 C-330.70185817 264.06360361 -346.78694012 236.85188802 -353.359375 206.22265625 C-353.85795008 203.81964066 -353.85795008 203.81964066 -356 202 C-356.98358675 197.96253504 -357.23958525 194.12605068 -356.375 190.0625 C-354.5420588 187.31308819 -353.13785555 187.02054411 -350 186 C-347.42445345 185.5518383 -344.90420748 185.1722886 -342.3125 184.875 C-341.60279053 184.7922583 -340.89308105 184.7095166 -340.16186523 184.62426758 C-331.00160419 183.61039726 -323.66889859 183.48218608 -315 187 C-315 188.32 -315 189.64 -315 191 C-318.78780324 192.18368851 -322.16310964 193.05640823 -326.125 193.3125 C-330.79301212 194.1406957 -332.25515116 195.17384707 -335 199 C-337.23206753 205.56490449 -334.87299461 211.02511834 -332 217 C-321.01440133 235.9278896 -305.01837331 252.39934678 -288 266 C-287.13503906 266.77988281 -286.27007812 267.55976563 -285.37890625 268.36328125 C-283.20361241 270.16734846 -283.20361241 270.16734846 -280.984375 270.09765625 C-277.99816826 268.44583716 -276.34008495 266.11157928 -274.25 263.4375 C-273.45078125 262.42558594 -272.6515625 261.41367187 -271.828125 260.37109375 C-271.22484375 259.58863281 -270.6215625 258.80617188 -270 258 C-266.32014503 260.26452613 -263.13271633 262.71275486 -259.9375 265.625 C-256.10420964 269.0919691 -252.14432981 272.33408471 -248.0625 275.5 C-247.4945874 275.94553223 -246.9266748 276.39106445 -246.34155273 276.85009766 C-243.49770737 279.2525827 -243.49770737 279.2525827 -240 280 C-238.64287834 278.44144019 -238.64287834 278.44144019 -237.375 276.5 C-236.92898437 275.8503125 -236.48296875 275.200625 -236.0234375 274.53125 C-235.68570313 274.0259375 -235.34796875 273.520625 -235 273 C-220.59137689 279.31203444 -210.43707588 295.81359293 -203.36328125 309.06640625 C-199.05766852 316.72893737 -194.29140353 320.12910153 -186 323 C-179.65790753 324.72889489 -173.54977638 325.24716137 -167 325 C-166.938125 324.113125 -166.87625 323.22625 -166.8125 322.3125 C-165.39404772 312.69422767 -160.83891418 304.1224481 -155.35546875 296.2421875 C-153.74132842 294.0087872 -153.74132842 294.0087872 -154 291 C-155.28725907 289.29749607 -156.62131719 287.62935241 -158 286 C-159.21448453 283.57103093 -158.92321127 282.41317361 -158.70703125 279.7265625 C-158.64133013 272.54581655 -161.71458284 266.77466843 -164.6875 260.375 C-165.8018442 257.89044984 -166.89987544 255.39884212 -167.99609375 252.90625 C-168.52058105 251.71644531 -169.04506836 250.52664062 -169.58544922 249.30078125 C-177.95104919 229.78008542 -176.30992292 215.08732321 -169 195.625 C-168.75024414 194.95146484 -168.50048828 194.27792969 -168.24316406 193.58398438 C-167.14122604 190.68656087 -165.97879605 187.96270662 -164.4453125 185.265625 C-162.99671949 182.64272878 -162.17747797 181.00347333 -162 178 C-163.65779317 174.05574405 -165.63983249 170.64579509 -168.01171875 167.1015625 C-171.05643079 162.35205098 -171.47779012 158.63792336 -171 153 C-169.5531608 148.9736532 -167.79454708 146.54173665 -164.25 144.125 C-160.25130844 142.74083754 -157.25429812 142.06861771 -153 142 C-150.5625 143.3125 -150.5625 143.3125 -149 146 C-148.58493954 148.56582831 -148.37497418 151.0631604 -148.2734375 153.66015625 C-148.14804039 156.27017741 -148.14804039 156.27017741 -146 159 C-143.6859378 159.73075648 -141.35171131 160.40138258 -139 161 C-138 162 -138 162 -137.5 164.6875 C-138 168 -138 168 -141.2109375 170.375 C-146.57336149 174.76917079 -148.03324614 180.91322306 -150.125 187.3125 C-150.5531733 188.57785069 -150.98270768 189.84274159 -151.41357422 191.10717773 C-152.63360056 194.73054841 -153.82041667 198.36329875 -155 202 C-155.30808594 202.92103516 -155.61617188 203.84207031 -155.93359375 204.79101562 C-162.73801137 225.15543295 -158.38148135 239.74837633 -149.1015625 258.59375 C-148 261 -148 261 -148 263 C-147.34 262.67 -146.68 262.34 -146 262 C-139.04984741 261.31637843 -139.04984741 261.31637843 -135.3125 263.75 C-132.50580636 267.69454241 -130.94444541 271.71818263 -129.30859375 276.2578125 C-127.85623563 279.30126147 -126.96874919 280.44049999 -124 282 C-120.96116319 282.57437061 -120.96116319 282.57437061 -117.75 282.6875 C-116.13351562 282.78611328 -116.13351562 282.78611328 -114.484375 282.88671875 C-113.66453125 282.92410156 -112.8446875 282.96148437 -112 283 C-112.86625 282.01 -113.7325 281.02 -114.625 280 C-123.8789423 269.13098286 -129.452997 259.76300541 -129.2734375 245.12890625 C-128.3884698 235.00234727 -122.63370611 228.29465444 -115.4375 221.625 C-113.39179791 217.88937009 -114.58691828 215.50670444 -115.6015625 211.5078125 C-116.24334666 207.46834751 -115.08821786 205.45636059 -113 202 C-109.68629 199.79086 -108.6553979 199.77518447 -104.8125 199.875 C-103.91144531 199.89304688 -103.01039063 199.91109375 -102.08203125 199.9296875 C-101.39496094 199.95289063 -100.70789063 199.97609375 -100 200 C-99.43410156 198.86820313 -98.86820312 197.73640625 -98.28515625 196.5703125 C-95.85677083 191.71354167 -93.42838542 186.85677083 -91 182 C-92.1446875 181.62875 -92.1446875 181.62875 -93.3125 181.25 C-96.36305159 179.83113879 -97.27919557 178.84992825 -99 176 C-101.33678792 163.42029169 -95.04469939 151.83433181 -89.421875 141.0234375 C-84.0783651 129.66113898 -79.88464901 114.32199621 -84.01171875 101.97265625 C-85.70367544 98.59382383 -87.59604911 95.55717364 -89.8125 92.5 C-91.78857675 88.33983842 -91.78622972 84.50116516 -91 80 C-87.33299995 70.79082943 -80.04760581 64.72312461 -72.0625 59.25 C-68.56228093 56.74724331 -68.56228093 56.74724331 -67 53 C-66.62278196 49.45415038 -66.61333466 47.62833119 -68.5 44.5625 C-70.44090598 41.24678562 -70.22206758 38.7751488 -70 35 C-68 38 -68 38 -66.625 40.9375 C-65.03306296 43.93768904 -63.41292627 45.66491007 -61 48 C-58.47163318 52.28016382 -58.22982317 56.13825877 -59 61 C-61.2513552 66.44747553 -65.19463378 70.48545636 -69.44921875 74.45703125 C-71.84661869 76.84235361 -72.93820123 78.67040657 -73.5625 82 C-73.43153522 86.80540014 -70.55616663 90.17682594 -67.953125 94.0390625 C-62.90991773 101.68456472 -58.31011023 109.58150487 -59 119 C-60.02312702 123.98594295 -61.64424473 128.49423228 -64 133 C-62.57896791 132.82388919 -61.16291041 132.60744655 -59.75 132.375 C-58.96109375 132.25898438 -58.1721875 132.14296875 -57.359375 132.0234375 C-53.9060486 130.52547141 -52.40890735 128.3711103 -51 125 C-49.84801388 120.09779316 -49.29763264 115.10789532 -48.66601562 110.1171875 C-47.03238471 98.68896769 -42.57059698 89.83506067 -34 82 C-29.61074259 78.74403446 -26.16086077 77.93789543 -20.75 78 C-14.52898435 77.64574772 -11.26169563 74.24788523 -7.21777344 69.92431641 C0.06908569 61.75718167 7.90905493 52.24012454 8.4375 40.8125 C7.55780632 33.14659793 3.70917512 27.77588478 -0.4765625 21.453125 C-3.70092305 16.26107776 -3.50295685 10.94009379 -3 5 C-1.625 1.8125 -1.625 1.8125 0 0 Z " fill="#FED1B2" transform="translate(413,0)"/>
<path d="M0 0 C0.66 0 1.32 0 2 0 C2.09796875 0.58007812 2.1959375 1.16015625 2.296875 1.7578125 C3.77281994 9.46835244 6.50746607 14.3590771 13 19 C15.83415864 20.15142691 15.83415864 20.15142691 18.89453125 20.9296875 C20.01537109 21.25066406 21.13621094 21.57164063 22.29101562 21.90234375 C24.62578274 22.54722119 26.96171512 23.18789555 29.29882812 23.82421875 C38.40466819 26.44377847 45.60994977 29.91492465 51 38 C53.17015355 42.03028517 53.19344176 44.59344582 52 49 C50.4375 51.875 50.4375 51.875 49 54 C50.43861294 53.91253716 51.87597508 53.80434652 53.3125 53.6875 C54.11300781 53.62949219 54.91351563 53.57148437 55.73828125 53.51171875 C58.45468312 52.89712696 59.39248268 52.26168052 61 50 C62.37671928 43.74739992 60.84072149 38.14953526 57.8359375 32.65234375 C55.19157348 28.83208169 52.10355858 25.49305749 48.8347168 22.19775391 C46.00177413 19.31032213 44.1010717 16.91851987 43 13 C43.07943203 8.55180624 43.51874731 6.58256905 46.375 3.125 C49 1 49 1 52 0 C51.979375 0.60328125 51.95875 1.2065625 51.9375 1.828125 C51.9684375 3.02695313 51.9684375 3.02695313 52 4.25 C52 5.03890625 52 5.8278125 52 6.640625 C53.65564999 10.5469242 57.25660304 11.38779714 61 13 C62.34868525 13.64743337 63.6938545 14.30224923 65.03515625 14.96484375 C65.69966797 15.29033203 66.36417969 15.61582031 67.04882812 15.95117188 C67.71333984 16.27666016 68.37785156 16.60214844 69.0625 16.9375 C69.73087891 17.25912109 70.39925781 17.58074219 71.08789062 17.91210938 C77.54193403 21.09208994 83.48902973 24.37739034 87.375 30.625 C88.09816406 31.75808594 88.09816406 31.75808594 88.8359375 32.9140625 C92.71031519 39.8567393 91.94473434 49.23674287 90.05859375 56.75 C87.85687788 63.04456074 85.18014039 69.04568903 82.015625 74.9140625 C78.39464875 82.35099064 79.97153845 89.37986181 82.39453125 96.9375 C84.33988408 102.17509138 86.95945059 107.09501995 89.5 112.0625 C96.63126216 126.08114032 102.50256009 139.44670691 98.0703125 155.33203125 C93.28223853 166.14061243 83.57134677 174.10882332 74.62109375 181.5 C71.5179837 184.37131146 70.10620788 186.25654487 69.5 190.5 C69.61493449 194.37903894 70.8861926 197.24730439 72.5 200.75 C75.46807292 207.43873413 76.59008047 213.97721641 74.3359375 221.09765625 C69.32138895 231.01774142 58.62315889 235.26444129 48.69140625 238.53564453 C47.84449219 238.81263184 46.99757813 239.08961914 46.125 239.375 C32.142374 243.91918688 32.142374 243.91918688 22 254 C19.34188304 259.8700083 17.93388621 266.00796845 16.53320312 272.27661133 C15.58670335 276.33114539 14.4485868 279.61406357 12 283 C8.42478824 284.78760588 4.84928097 284.56985001 1 284 C-7.33341397 281.06932287 -17.89426177 275.21147647 -22 267 C-22.54684906 260.47987656 -21.31394634 256.73663679 -18.125 251.125 C-14.94047141 245.15539347 -12.58406515 239.8310228 -12 233 C-11.87625 231.783125 -11.7525 230.56625 -11.625 229.3125 C-12.3060979 223.29613519 -15.16386409 219.67187235 -19.4375 215.6875 C-22.31032905 212.98509301 -23.84163676 210.53897515 -25.4375 206.9375 C-29.83695721 197.63418921 -39.53030059 193.88736298 -48.1953125 189.1484375 C-51.58962565 187.27418817 -54.78492666 185.16841443 -58 183 C-63.44622184 180.46687356 -69.0989411 180.58538312 -75 181 C-75.66 181.33 -76.32 181.66 -77 182 C-79.62046735 182.17741233 -82.19010883 182.27747251 -84.8125 182.3125 C-85.52470703 182.34150391 -86.23691406 182.37050781 -86.97070312 182.40039062 C-90.70541638 182.44530392 -92.77928605 182.14178313 -95.94921875 180.10546875 C-99.73565424 176.21806165 -99.3939396 172.7291884 -99.34375 167.484375 C-98.40210427 157.93951148 -93.78418016 149.41075618 -89.421875 141.0234375 C-84.0783651 129.66113898 -79.88464901 114.32199621 -84.01171875 101.97265625 C-85.70367544 98.59382383 -87.59604911 95.55717364 -89.8125 92.5 C-91.78857675 88.33983842 -91.78622972 84.50116516 -91 80 C-87.33299995 70.79082943 -80.04760581 64.72312461 -72.0625 59.25 C-68.56228093 56.74724331 -68.56228093 56.74724331 -67 53 C-66.62278196 49.45415038 -66.61333466 47.62833119 -68.5 44.5625 C-70.44090598 41.24678562 -70.22206758 38.7751488 -70 35 C-68 38 -68 38 -66.625 40.9375 C-65.03306296 43.93768904 -63.41292627 45.66491007 -61 48 C-58.47163318 52.28016382 -58.22982317 56.13825877 -59 61 C-61.2513552 66.44747553 -65.19463378 70.48545636 -69.44921875 74.45703125 C-71.84661869 76.84235361 -72.93820123 78.67040657 -73.5625 82 C-73.43153522 86.80540014 -70.55616663 90.17682594 -67.953125 94.0390625 C-62.90991773 101.68456472 -58.31011023 109.58150487 -59 119 C-60.02312702 123.98594295 -61.64424473 128.49423228 -64 133 C-62.57896791 132.82388919 -61.16291041 132.60744655 -59.75 132.375 C-58.96109375 132.25898438 -58.1721875 132.14296875 -57.359375 132.0234375 C-53.9060486 130.52547141 -52.40890735 128.3711103 -51 125 C-49.84801388 120.09779316 -49.29763264 115.10789532 -48.66601562 110.1171875 C-47.03238471 98.68896769 -42.57059698 89.83506067 -34 82 C-29.61074259 78.74403446 -26.16086077 77.93789543 -20.75 78 C-14.52898435 77.64574772 -11.26169563 74.24788523 -7.21777344 69.92431641 C0.06908569 61.75718167 7.90905493 52.24012454 8.4375 40.8125 C7.55780632 33.14659793 3.70917512 27.77588478 -0.4765625 21.453125 C-3.70092305 16.26107776 -3.50295685 10.94009379 -3 5 C-1.625 1.8125 -1.625 1.8125 0 0 Z " fill="#F4BC1C" transform="translate(413,0)"/>
<path d="M0 0 C0 1.32 0 2.64 0 4 C-3.78780324 5.18368851 -7.16310964 6.05640823 -11.125 6.3125 C-15.79301212 7.1406957 -17.25515116 8.17384707 -20 12 C-22.23206753 18.56490449 -19.87299461 24.02511834 -17 30 C-6.01440133 48.9278896 9.98162669 65.39934678 27 79 C27.86496094 79.77988281 28.72992188 80.55976563 29.62109375 81.36328125 C31.79638759 83.16734846 31.79638759 83.16734846 34.015625 83.09765625 C37.00183174 81.44583716 38.65991505 79.11157928 40.75 76.4375 C41.54921875 75.42558594 42.3484375 74.41367187 43.171875 73.37109375 C43.77515625 72.58863281 44.3784375 71.80617188 45 71 C48.6527475 73.24784462 51.82675253 75.6739551 55 78.5625 C61.0545505 84.05625165 67.538325 88.99978492 74 94 C70.33505088 102.44048888 61.76115158 106.67649424 53.63671875 109.953125 C48.09910055 112.23705264 44.63135517 114.12546954 42.19604492 119.90942383 C40.16949826 125.56811186 39.56543023 130.51369826 39.6875 136.5 C39.68427734 137.29019531 39.68105469 138.08039063 39.67773438 138.89453125 C39.77435179 149.62784717 42.03699263 159.2846513 49.8125 167 C50.51117188 167.66257812 51.20984375 168.32515625 51.9296875 169.0078125 C54.51989833 171.50027953 56.83421926 174.17117247 59.171875 176.8984375 C60.42805555 178.34250831 61.71112151 179.76349093 63.015625 181.1640625 C74.75714774 193.7925348 84.61136373 207.62090928 91.9375 223.25 C97.24005415 233.91063243 105.86984917 239.33164017 116 245 C117.49660156 245.88751953 117.49660156 245.88751953 119.0234375 246.79296875 C122.68131088 248.27627961 124.24854326 248.17532852 128 247 C130.41814972 245.63657516 132.61332357 244.2709152 134.875 242.6875 C135.84348877 242.02415649 135.84348877 242.02415649 136.83154297 241.34741211 C173.41402837 216.32152817 173.41402837 216.32152817 197.078125 180.07421875 C198.44114962 177.00741336 200.0348512 175.51873475 203 174 C210.04922078 174.75914685 217.95802685 178.81629963 223.25 183.5 C225 186 225 186 225.75 189 C224.77318238 192.90727049 223.10787175 193.89238496 219.82421875 196.01953125 C216.7988813 197.64556915 214.13493351 198.2000634 210.75 198.3125 C210.02296875 198.34988281 209.2959375 198.38726562 208.546875 198.42578125 C204.8051068 197.80024025 202.21863441 195.99005811 199 194 C198.79246094 195.10214844 198.58492188 196.20429688 198.37109375 197.33984375 C189.56879533 241.66675978 156.89519272 272.41122439 121.97460938 298.50976562 C120.66708853 299.49654941 119.37610539 300.50566947 118.10351562 301.53710938 C113.74170859 304.955823 113.74170859 304.955823 110.5078125 305.1484375 C106.86823289 303.48171413 103.98299331 301.123598 100.875 298.625 C87.36580082 288.20281514 73.17906972 280.8511856 57.37915039 274.49438477 C50.35518122 271.64513045 43.97598922 268.74867474 38 264 C37.37996094 263.50757813 36.75992188 263.01515625 36.12109375 262.5078125 C27.50392295 254.75814212 21.98811732 243.4335552 16.9375 233.1875 C16.54320801 232.41180664 16.14891602 231.63611328 15.74267578 230.83691406 C12.6298754 224.28790546 11.79274163 218.7153265 14.05859375 211.7421875 C14.51363281 210.79601562 14.96867187 209.84984375 15.4375 208.875 C18.59714611 201.74554212 19.86159901 196.4552904 17.4140625 188.9296875 C15.23552288 184.41613857 12.17677058 180.64344369 9.13208008 176.68310547 C4.94428337 171.15384512 2.12564246 165.62813967 0 159 C-0.24234375 158.28070313 -0.4846875 157.56140625 -0.734375 156.8203125 C-2.79210829 149.45140275 -2.16735859 141.57762499 -2 134 C-2.94875 133.9484375 -3.8975 133.896875 -4.875 133.84375 C-32.40843053 131.77382664 -63.50039851 118.681283 -82.765625 98.47265625 C-84 97 -84 97 -86 94 C-86.9075 93.5875 -87.815 93.175 -88.75 92.75 C-93.41899615 90.23592515 -96.81546302 87.12692288 -98.7265625 82.08203125 C-99.06790594 79.63898746 -98.91527184 78.30528749 -98 76 C-95.05161656 72.48741973 -91.63990323 69.76970778 -88 67 C-87.13890625 66.33355469 -86.2778125 65.66710937 -85.390625 64.98046875 C-78.28249724 59.73767265 -71.99665134 56.43770929 -63 57 C-64.34949479 61.26971302 -66.03269771 63.12123822 -69.5625 65.8125 C-73.57896316 69.2338074 -73.57896316 69.2338074 -75.25 74.0625 C-74.96012301 78.62806262 -74.44824234 81.1116151 -72 85 C-69.22362198 87.42401494 -66.21041893 89.20523665 -63 91 C-62.16855469 91.48210937 -61.33710937 91.96421875 -60.48046875 92.4609375 C-42.97152182 101.92929507 -21.69341533 107.5301149 -1.953125 109.5703125 C2 110 2 110 4 111 C4.226875 110.319375 4.45375 109.63875 4.6875 108.9375 C6.35572357 105.20385676 8.55729608 102.27836579 11 99 C10.16597656 98.32195312 9.33195312 97.64390625 8.47265625 96.9453125 C-15.70185817 77.06360361 -31.78694012 49.85188802 -38.359375 19.22265625 C-38.85795008 16.81964066 -38.85795008 16.81964066 -41 15 C-41.98358675 10.96253504 -42.23958525 7.12605068 -41.375 3.0625 C-39.5420588 0.31308819 -38.13785555 0.02054411 -35 -1 C-32.42445345 -1.4481617 -29.90420748 -1.8277114 -27.3125 -2.125 C-26.60279053 -2.2077417 -25.89308105 -2.2904834 -25.16186523 -2.37573242 C-16.00160419 -3.38960274 -8.66889859 -3.51781392 0 0 Z " fill="#769CD3" transform="translate(98,187)"/>
<path d="M0 0 C14.40862311 6.31203444 24.56292412 22.81359293 31.63671875 36.06640625 C35.94233148 43.72893737 40.70859647 47.12910153 49 50 C55.40475995 51.74597844 61.40202189 52.07019126 68 52 C68.47308594 53.03898437 68.94617188 54.07796875 69.43359375 55.1484375 C77.56006789 72.49922015 88.74947502 83.30639772 107 90 C110.31347231 90.85279716 113.61490875 91.50802362 117 92 C115.52595611 109.68852674 98.76235313 123.56403418 86.19335938 134.58398438 C82.25037751 137.88707661 78.14705345 140.95966909 74 144 C73.27458008 144.53786133 72.54916016 145.07572266 71.80175781 145.62988281 C48.18846356 163.11423299 48.18846356 163.11423299 43.15625 162.8515625 C30.95362856 159.55927107 19.3111058 150.08378065 12 140 C10.71488666 137.51232878 9.49639037 135.03368977 8.3125 132.5 C0.09187841 115.54411833 -12.28140706 101.70680016 -25 88 C-36.20854265 75.86739429 -41.14243045 67.45963385 -41.25 50.625 C-41.270625 49.82578125 -41.29125 49.0265625 -41.3125 48.203125 C-41.36424043 40.20922837 -39.59574377 32.56731742 -34.05859375 26.546875 C-30.52012655 23.88798883 -26.39351772 22.7479085 -22.25 21.29296875 C-12.21988691 17.30262328 -5.83035378 8.74553067 0 0 Z " fill="#E8F1F3" transform="translate(178,273)"/>
<path d="M0 0 C2.4658719 3.69880785 2.39803736 6.28702757 2.65625 10.625 C2.86422231 13.26194296 2.86422231 13.26194296 5 16 C7.3140622 16.73075648 9.64828869 17.40138258 12 18 C13 19 13 19 13.5 21.6875 C13 25 13 25 9.7890625 27.375 C4.42663851 31.76917079 2.96675386 37.91322306 0.875 44.3125 C0.4468267 45.57785069 0.01729232 46.84274159 -0.41357422 48.10717773 C-1.63360056 51.73054841 -2.82041667 55.36329875 -4 59 C-4.30808594 59.92103516 -4.61617188 60.84207031 -4.93359375 61.79101562 C-11.73801137 82.15543295 -7.38148135 96.74837633 1.8984375 115.59375 C3 118 3 118 3 120 C3.99 119.505 3.99 119.505 5 119 C11.95015259 118.31637843 11.95015259 118.31637843 15.6875 120.75 C18.47809609 124.67191883 20.10111568 128.66840515 21.7890625 133.16015625 C22.92328991 135.82010247 24.16264411 137.78561443 26 140 C22.17757879 146.57269989 17.89992838 151.10791562 11.87890625 155.76171875 C9.6878377 157.89095938 9.6878377 157.89095938 9.96875 160.9609375 C12.97843144 169.83037751 22.12894906 176.48165625 30 181 C36.78293331 184.20115414 43.40629321 186.79933756 51 186 C53.70800597 183.96050874 53.70800597 183.96050874 56 181 C56.51820313 180.4225 57.03640625 179.845 57.5703125 179.25 C60.2246436 176.27509751 62.25179213 173.5935384 64 170 C64.97850195 168.97895449 65.97980427 167.9793879 67 167 C68.01103998 165.67501851 69.0123675 164.34251995 70 163 C70.77923828 163.77537109 70.77923828 163.77537109 71.57421875 164.56640625 C72.27160156 165.22511719 72.96898437 165.88382813 73.6875 166.5625 C74.71423828 167.55443359 74.71423828 167.55443359 75.76171875 168.56640625 C77.90265192 170.26785264 77.90265192 170.26785264 80.4296875 169.734375 C81.27789062 169.49203125 82.12609375 169.2496875 83 169 C88.26203517 168.53277417 92.60244368 168.33933701 97.4375 170.625 C101.06206063 173.98434888 103.43533574 177.30600721 105 182 C105.03954234 184.33299825 105.04401732 186.66708189 105 189 C111.05840394 191.07353673 117.13760642 192.99132591 123.3125 194.6875 C124.07755859 194.91244141 124.84261719 195.13738281 125.63085938 195.36914062 C137.16552664 198.51322143 147.43058069 196.85777216 158.8125 193.8125 C160.03775391 193.49297363 161.26300781 193.17344727 162.52539062 192.84423828 C166.02382727 191.91951889 169.51338442 190.96824222 173 190 C173.88478027 189.75523926 174.76956055 189.51047852 175.68115234 189.25830078 C185.19494912 186.77001372 185.19494912 186.77001372 192 180 C193.08014417 177.59258753 193.08014417 177.59258753 193.75 175.1875 C194.11351562 174.00220703 194.11351562 174.00220703 194.484375 172.79296875 C194.65453125 172.20128906 194.8246875 171.60960937 195 171 C198.25 170.6875 198.25 170.6875 202 171 C203.34423339 172.65788785 204.67618483 174.32576317 206 176 C208.12605952 176.87381846 208.12605952 176.87381846 210.5 177.5 C213.62559113 178.43201317 215.01493299 179.01274767 217.5625 181.1875 C219.82415894 185.61248489 219.68265647 189.47417107 218.375 194.3125 C216.26866703 196.89754501 214.08478675 197.75550889 211 199 C208.25112881 199.03404175 205.66589084 198.94430228 202.9375 198.75 C195.61076664 198.48771005 189.68436898 199.6889327 182.8125 202.1875 C156.04917836 211.86280511 130.29509311 214.68220466 102.97851562 205.30615234 C99.49099054 204.05324 99.49099054 204.05324 96.03125 204.8984375 C95.5259375 205.38570312 95.020625 205.87296875 94.5 206.375 C91.83981547 208.54827575 91.08704144 208.98756551 87.5 209.5 C77.59487291 208.08498184 73.20369701 202.5818018 67.38769531 194.85913086 C66.92975586 194.24561768 66.47181641 193.63210449 66 193 C65.39696045 193.65633423 65.39696045 193.65633423 64.78173828 194.32592773 C57.15947329 202.59951038 49.59603525 210.7252072 41 218 C40.44828125 218.57878906 39.8965625 219.15757812 39.328125 219.75390625 C37.53677905 221.45213768 36.37006895 222.28274229 34 223 C20.32550401 222.59259921 6.77445391 214.64569389 -2.8515625 205.35546875 C-8.65987328 198.98744802 -15.55511363 190.61500522 -16.2578125 181.74609375 C-15.97159262 177.58723219 -14.94195999 174.09457486 -13.4375 170.25 C-13.17372559 169.55624268 -12.90995117 168.86248535 -12.63818359 168.14770508 C-10.48102286 162.70574827 -7.70646788 157.9227782 -4.3203125 153.13671875 C-2.73717079 150.99327395 -2.73717079 150.99327395 -3 148 C-4.28725907 146.29749607 -5.62131719 144.62935241 -7 143 C-8.21448453 140.57103093 -7.92321127 139.41317361 -7.70703125 136.7265625 C-7.64133013 129.54581655 -10.71458284 123.77466843 -13.6875 117.375 C-14.8018442 114.89044984 -15.89987544 112.39884212 -16.99609375 109.90625 C-17.78282471 108.12154297 -17.78282471 108.12154297 -18.58544922 106.30078125 C-26.95104919 86.78008542 -25.30992292 72.08732321 -18 52.625 C-17.75024414 51.95146484 -17.50048828 51.27792969 -17.24316406 50.58398438 C-16.14122604 47.68656087 -14.97879605 44.96270662 -13.4453125 42.265625 C-11.99671949 39.64272878 -11.17747797 38.00347333 -11 35 C-12.65779317 31.05574405 -14.63983249 27.64579509 -17.01171875 24.1015625 C-20.05643079 19.35205098 -20.47779012 15.63792336 -20 10 C-18.50066943 5.8275772 -16.77933542 3.48708464 -13 1.125 C-8.10563858 -0.71038553 -5.21315406 -1.35995323 0 0 Z " fill="#769CD3" transform="translate(262,143)"/>
<path d="M0 0 C3.62456063 3.35934888 5.99783574 6.68100721 7.5625 11.375 C7.60204234 13.70799825 7.60651732 16.04208189 7.5625 18.375 C13.62090394 20.44853673 19.70010642 22.36632591 25.875 24.0625 C27.02258789 24.39991211 27.02258789 24.39991211 28.19335938 24.74414062 C39.72802664 27.88822143 49.99308069 26.23277216 61.375 23.1875 C63.21288086 22.70821045 63.21288086 22.70821045 65.08789062 22.21923828 C68.58632727 21.29451889 72.07588442 20.34324222 75.5625 19.375 C76.44728027 19.13023926 77.33206055 18.88547852 78.24365234 18.63330078 C87.75744912 16.14501372 87.75744912 16.14501372 94.5625 9.375 C95.64264417 6.96758753 95.64264417 6.96758753 96.3125 4.5625 C96.67601562 3.37720703 96.67601562 3.37720703 97.046875 2.16796875 C97.21703125 1.57628906 97.3871875 0.98460937 97.5625 0.375 C100.8125 0.0625 100.8125 0.0625 104.5625 0.375 C105.90673339 2.03288785 107.23868483 3.70076317 108.5625 5.375 C110.68855952 6.24881846 110.68855952 6.24881846 113.0625 6.875 C116.18809113 7.80701317 117.57743299 8.38774767 120.125 10.5625 C122.38665894 14.98748489 122.24515647 18.84917107 120.9375 23.6875 C118.83116703 26.27254501 116.64728675 27.13050889 113.5625 28.375 C110.81362881 28.40904175 108.22839084 28.31930228 105.5 28.125 C98.17326664 27.86271005 92.24686898 29.0639327 85.375 31.5625 C58.61167836 41.23780511 32.85759311 44.05720466 5.54101562 34.68115234 C2.05349054 33.42824 2.05349054 33.42824 -1.40625 34.2734375 C-1.9115625 34.76070313 -2.416875 35.24796875 -2.9375 35.75 C-5.59768453 37.92327575 -6.35045856 38.36256551 -9.9375 38.875 C-18.86871136 37.59911266 -23.10531799 33.44780234 -28.4375 26.375 C-29.97268245 24.03280321 -30.45798051 22.87847922 -30.34375 20.0703125 C-29.11463018 16.41474063 -27.08877214 13.4136355 -24.9375 10.25 C-21.72430892 5.55861164 -21.72430892 5.55861164 -19.4375 0.375 C-13.34622175 -2.81515979 -6.1611277 -2.91253309 0 0 Z " fill="#FED2B3" transform="translate(359.4375,313.625)"/>
<path d="M0 0 C2.4658719 3.69880785 2.39803736 6.28702757 2.65625 10.625 C2.86422231 13.26194296 2.86422231 13.26194296 5 16 C7.3140622 16.73075648 9.64828869 17.40138258 12 18 C13 19 13 19 13.5 21.6875 C13 25 13 25 9.7890625 27.375 C4.42663851 31.76917079 2.96675386 37.91322306 0.875 44.3125 C0.4468267 45.57785069 0.01729232 46.84274159 -0.41357422 48.10717773 C-1.63360056 51.73054841 -2.82041667 55.36329875 -4 59 C-4.30808594 59.92103516 -4.61617188 60.84207031 -4.93359375 61.79101562 C-11.73801137 82.15543295 -7.38148135 96.74837633 1.8984375 115.59375 C3 118 3 118 3 120 C3.99 119.505 3.99 119.505 5 119 C12.02790279 118.30873087 12.02790279 118.30873087 15.8125 121 C18.9598077 125.3163077 21 129.60570718 21 135 C18.65625 136.83203125 18.65625 136.83203125 15.5 138.8125 C11.00330855 141.67595918 6.79065851 144.62850104 2.71875 148.06640625 C1 149 1 149 -1.08203125 148.8046875 C-4.51557704 147.36413672 -6.37682862 144.24634277 -8 141 C-7.92339113 139.57423399 -7.82155184 138.14978514 -7.70703125 136.7265625 C-7.64133013 129.54581655 -10.71458284 123.77466843 -13.6875 117.375 C-14.8018442 114.89044984 -15.89987544 112.39884212 -16.99609375 109.90625 C-17.78282471 108.12154297 -17.78282471 108.12154297 -18.58544922 106.30078125 C-26.95104919 86.78008542 -25.30992292 72.08732321 -18 52.625 C-17.75024414 51.95146484 -17.50048828 51.27792969 -17.24316406 50.58398438 C-16.14122604 47.68656087 -14.97879605 44.96270662 -13.4453125 42.265625 C-11.99671949 39.64272878 -11.17747797 38.00347333 -11 35 C-12.65779317 31.05574405 -14.63983249 27.64579509 -17.01171875 24.1015625 C-20.05643079 19.35205098 -20.47779012 15.63792336 -20 10 C-18.50066943 5.8275772 -16.77933542 3.48708464 -13 1.125 C-8.10563858 -0.71038553 -5.21315406 -1.35995323 0 0 Z " fill="#FED2B3" transform="translate(262,143)"/>
<path d="M0 0 C0 1.32 0 2.64 0 4 C-3.78780324 5.18368851 -7.16310964 6.05640823 -11.125 6.3125 C-15.79301212 7.1406957 -17.25515116 8.17384707 -20 12 C-22.23206753 18.56490449 -19.87299461 24.02511834 -17 30 C-4.78510001 51.04594254 13.82368539 70.39271806 34 84 C31.81101221 90.56696338 22.22989599 93.97034858 16.3125 96.9375 C14.87803416 97.63130852 13.44170669 98.32136583 12 99 C-13.39545136 80.61019039 -31.08952411 52.79700614 -37.75927734 21.99951172 C-38.57998301 18.10115251 -38.57998301 18.10115251 -41 15 C-41.98358675 10.96253504 -42.23958525 7.12605068 -41.375 3.0625 C-39.5420588 0.31308819 -38.13785555 0.02054411 -35 -1 C-32.42445345 -1.4481617 -29.90420748 -1.8277114 -27.3125 -2.125 C-26.60279053 -2.2077417 -25.89308105 -2.2904834 -25.16186523 -2.37573242 C-16.00160419 -3.38960274 -8.66889859 -3.51781392 0 0 Z " fill="#E8F1F3" transform="translate(98,187)"/>
<path d="M0 0 C-1.34949479 4.26971302 -3.03269771 6.12123822 -6.5625 8.8125 C-10.57896316 12.2338074 -10.57896316 12.2338074 -12.25 17.0625 C-11.96012301 21.62806262 -11.44824234 24.1116151 -9 28 C-6.22362198 30.42401494 -3.21041893 32.20523665 0 34 C0.83144531 34.48210937 1.66289063 34.96421875 2.51953125 35.4609375 C20.02847818 44.92929507 41.30658467 50.5301149 61.046875 52.5703125 C65 53 65 53 67 54 C66.80664062 54.66644531 66.61328125 55.33289063 66.4140625 56.01953125 C64.5458986 62.63209159 63.11457034 69.22078979 62 76 C46.69936604 81.10021132 22.76274045 68.7386111 9.375 62.125 C-2.61145821 55.98724155 -15.39001619 48.41497572 -23 37 C-24.36125 36.38125 -24.36125 36.38125 -25.75 35.75 C-30.41899615 33.23592515 -33.81546302 30.12692288 -35.7265625 25.08203125 C-36.06790594 22.63898746 -35.91527184 21.30528749 -35 19 C-32.05161656 15.48741973 -28.63990323 12.76970778 -25 10 C-24.13890625 9.33355469 -23.2778125 8.66710937 -22.390625 7.98046875 C-15.28249724 2.73767265 -8.99665134 -0.56229071 0 0 Z " fill="#E8F1F3" transform="translate(35,244)"/>
<path d="M0 0 C0.66 0 1.32 0 2 0 C2.14695312 0.87011719 2.14695312 0.87011719 2.296875 1.7578125 C3.77281994 9.46835244 6.50746607 14.3590771 13 19 C15.83415864 20.15142691 15.83415864 20.15142691 18.89453125 20.9296875 C20.01537109 21.25066406 21.13621094 21.57164063 22.29101562 21.90234375 C24.62578274 22.54722119 26.96171512 23.18789555 29.29882812 23.82421875 C38.40466819 26.44377847 45.60994977 29.91492465 51 38 C53.17004744 42.0300881 53.2567222 44.6014723 52 49 C50.42568656 52.57798508 49.10817604 54.50132078 45.5 56.125 C43.56637328 56.79756581 41.62597559 57.45094165 39.6796875 58.0859375 C29.57151592 61.5339144 23.78049566 71.07811834 17.9921875 79.484375 C15.13759586 83.0889966 11.7788805 86.43252335 7.14453125 87.37890625 C-1.86034488 88.08783285 -8.53905158 83.45667319 -16 79 C-12.97903383 75.38957702 -9.97527254 71.93040603 -6.5625 68.6875 C0.83260452 61.35783888 7.93997568 51.57146336 8.4375 40.8125 C7.55780632 33.14659793 3.70917512 27.77588478 -0.4765625 21.453125 C-3.70092305 16.26107776 -3.50295685 10.94009379 -3 5 C-1.625 1.8125 -1.625 1.8125 0 0 Z " fill="#E0A309" transform="translate(413,0)"/>
<path d="M0 0 C2.19510603 0.25361783 4.38228739 0.57765908 6.5625 0.9375 C8.35880859 1.22947266 8.35880859 1.22947266 10.19140625 1.52734375 C11.11824219 1.68332031 12.04507812 1.83929688 13 2 C12.88140625 2.66386719 12.7628125 3.32773437 12.640625 4.01171875 C11.70812046 9.77891402 11.70812046 9.77891402 13.8125 15.0625 C17.60825159 18.42445141 20.34300146 18.20365356 25.24609375 18.16796875 C29.28867341 17.92140006 33.09927625 17.05526826 37 16 C43 22.03478261 43 22.03478261 43 25.75 C42 28 42 28 40 31 C39.34 31 38.68 31 38 31 C37.7628125 31.70640625 37.525625 32.4128125 37.28125 33.140625 C35.77791846 36.49562099 33.84986394 38.92711151 31.5 41.75 C30.7059375 42.71421875 29.911875 43.6784375 29.09375 44.671875 C26.597697 47.44733692 25.81133699 47.9118112 22.125 48.3125 C8.62211051 48.03235706 -3.06535988 39.43711512 -12.125 30.2109375 C-16.98850424 24.47605542 -16.98850424 24.47605542 -17.01953125 20.4921875 C-15.61554833 17.06022926 -13.52951765 15.48142788 -10.6875 13.125 C-6.29910818 9.31717363 -3.44973204 6.23351845 -1 1 C-0.67 0.67 -0.34 0.34 0 0 Z " fill="#EDF6F8" transform="translate(288,282)"/>
<path d="M0 0 C4.47671865 4.14915387 7.2496054 8.30863296 7.875 14.4375 C7.23949134 22.44490917 3.66479402 29.27713641 -1.4375 35.375 C-4.38317617 37.77805161 -6.02199803 38.32883311 -9.8125 38.75 C-18.00175251 37.90283595 -21.50483177 34.70546547 -26.73828125 28.62890625 C-30.48949299 23.65316102 -30.48949299 23.65316102 -30.34375 20.0703125 C-29.11463018 16.41474063 -27.08877214 13.4136355 -24.9375 10.25 C-21.72430892 5.55861164 -21.72430892 5.55861164 -19.4375 0.375 C-13.34622175 -2.81515979 -6.1611277 -2.91253309 0 0 Z " fill="#E9F1F3" transform="translate(359.4375,313.625)"/>
<path d="M0 0 C4.65081717 3.30724776 6.61088171 7.60163787 8 13 C8 13.99 8 14.98 8 16 C5.65625 17.83203125 5.65625 17.83203125 2.5 19.8125 C-1.99669145 22.67595918 -6.20934149 25.62850104 -10.28125 29.06640625 C-12 30 -12 30 -14.08203125 29.8046875 C-17.51557704 28.36413672 -19.37682862 25.24634277 -21 22 C-21.58802203 17.81034301 -21.77956759 15.35635748 -19.6484375 11.6484375 C-17.87119553 9.30748882 -16.00951485 7.14402598 -14 5 C-13.49855469 4.44570313 -12.99710937 3.89140625 -12.48046875 3.3203125 C-8.41486966 -0.64448661 -5.36032131 -0.85084465 0 0 Z " fill="#E8F1F3" transform="translate(275,262)"/>
<path d="M0 0 C7.04284988 2.53370819 15.15143686 5.62035623 19.5625 11.921875 C20.3125 14.921875 20.3125 14.921875 19.5625 17.921875 C15.52936241 21.91222068 11.0541842 24.03553201 5.375 24.296875 C1.05080284 24.17636459 -2.35416515 23.49170938 -5.953125 21.015625 C-8.81896418 16.97328343 -8.25892696 12.17822048 -8.20703125 7.41796875 C-7.4375 3.921875 -7.4375 3.921875 -5.19921875 1.39453125 C-2.4375 -0.078125 -2.4375 -0.078125 0 0 Z " fill="#E8F2F4" transform="translate(303.4375,361.078125)"/>
<path d="M0 0 C0.99 0.33 1.98 0.66 3 1 C2.52269162 2.4589426 2.04308958 3.91713496 1.5625 5.375 C1.29566406 6.18710938 1.02882813 6.99921875 0.75390625 7.8359375 C0 10 0 10 -1 12 C1.28836222 12.41986946 1.28836222 12.41986946 4 12 C5.70779973 10.37550757 7.37550757 8.70779973 9 7 C11.3125 6.1875 11.3125 6.1875 13 6 C13 7.32 13 8.64 13 10 C12.21625 10.37125 11.4325 10.7425 10.625 11.125 C7.84623243 12.69112844 7.84623243 12.69112844 7.43359375 15.09375 C7.31113281 15.9290625 7.18867188 16.764375 7.0625 17.625 C5.97341824 24.65265964 2.53599716 29.6451455 -2.625 34.4375 C-8.13608428 38.06321335 -8.13608428 38.06321335 -11.5625 37.8125 C-14.24938496 36.91687168 -15.41164878 36.34072811 -17 34 C-17.45760698 30.64614632 -17.11821681 29.20228848 -15.390625 26.24609375 C-14.68421875 25.31925781 -13.9778125 24.39242187 -13.25 23.4375 C-12.55390625 22.50808594 -11.8578125 21.57867187 -11.140625 20.62109375 C-9 18 -9 18 -6.80078125 15.90234375 C-4.87625425 13.8692751 -4.41044824 12.83222093 -3.9375 10.125 C-3.16354535 6.40165062 -1.84144207 3.3480765 0 0 Z " fill="#7C9ED2" transform="translate(367,223)"/>
<path d="M0 0 C1.796875 1.0390625 1.796875 1.0390625 3.75 2.625 C4.79414062 3.45257813 4.79414062 3.45257813 5.859375 4.296875 C6.91898438 5.13992188 6.91898438 5.13992188 8 6 C9.3266535 6.96755932 10.6594414 7.92680002 12 8.875 C12.99 9.57625 13.98 10.2775 15 11 C12.81101221 17.56696338 3.22989599 20.97034858 -2.6875 23.9375 C-4.110625 24.618125 -5.53375 25.29875 -7 26 C-10.3 23.69 -13.6 21.38 -17 19 C-15.33051293 12.32205174 -11.52529801 6.48025425 -5.8125 2.5625 C-3 1 -3 1 0 0 Z " fill="#FDD2B3" transform="translate(117,260)"/>
<path d="M0 0 C-2.11206785 6.42560323 -7.14657129 10.77029427 -12.9375 14.12109375 C-13.80375 14.55615234 -13.80375 14.55615234 -14.6875 15 C-20.06165703 18.24477405 -23.45842379 23.30139863 -26 29 C-26.38290462 30.99110401 -26.72604615 32.99100513 -27 35 C-34.61151079 28.87769784 -34.61151079 28.87769784 -35.75 23.375 C-35.67036341 20.27486145 -35.12007295 19.14523346 -33.1171875 16.72265625 C-30.50606664 14.32844669 -27.81908423 12.14512284 -25 10 C-24.13890625 9.33355469 -23.2778125 8.66710937 -22.390625 7.98046875 C-15.28249724 2.73767265 -8.99665134 -0.56229071 0 0 Z " fill="#5B4944" transform="translate(35,244)"/>
<path d="M0 0 C0.99 0 1.98 0 3 0 C2.44894091 3.9492568 1.61064629 7.34920174 0 11 C2.62146478 11.38550953 4.3579678 11.45744794 6.5625 9.88671875 C7.078125 9.42910156 7.59375 8.97148437 8.125 8.5 C11 6 11 6 14 6 C13.61402985 8.79828356 13.19863427 9.8205884 11.0625 11.75 C9 13 9 13 7 13 C7.20625 13.928125 7.4125 14.85625 7.625 15.8125 C8 19 8 19 6 22 C5.34 20.68 4.68 19.36 4 18 C2.68 18.33 1.36 18.66 0 19 C0 20.32 0 21.64 0 23 C1.98 23 3.96 23 6 23 C4.63310446 26.15069422 3.14342115 28.00891774 0.5 30.1875 C-0.1084375 30.69667969 -0.716875 31.20585937 -1.34375 31.73046875 C-4.95880862 34.50144529 -8.59295528 34.49567988 -13 34 C-15 32.8125 -15 32.8125 -16 31 C-16.35414085 27.89605957 -16.2339021 26.38961783 -14.609375 23.68359375 C-13.99578125 22.94238281 -13.3821875 22.20117188 -12.75 21.4375 C-11.84507812 20.32181641 -11.84507812 20.32181641 -10.921875 19.18359375 C-9 17 -9 17 -6.9375 15.14453125 C-4.45760615 12.39964874 -3.49894731 9.7192981 -2.25 6.25 C-1.82203125 5.07953125 -1.3940625 3.9090625 -0.953125 2.703125 C-0.63859375 1.81109375 -0.3240625 0.9190625 0 0 Z " fill="#7C9ED2" transform="translate(329,193)"/>
<path d="M0 0 C1.74796875 0.16048828 1.74796875 0.16048828 3.53125 0.32421875 C4.6965625 0.42347656 5.861875 0.52273438 7.0625 0.625 C10.03125 1.01171875 10.03125 1.01171875 12.03125 2.01171875 C11.83789062 2.67816406 11.64453125 3.34460938 11.4453125 4.03125 C9.5771486 10.64381034 8.14582034 17.23250854 7.03125 24.01171875 C3.35317463 25.23774387 1.14881073 24.71467452 -2.65625 24.07421875 C-3.83574219 23.87957031 -5.01523438 23.68492187 -6.23046875 23.484375 C-7.13410156 23.32839844 -8.03773437 23.17242187 -8.96875 23.01171875 C-9.4164998 14.85272246 -9.44451552 8.98864736 -4.96875 2.01171875 C-2.96875 0.01171875 -2.96875 0.01171875 0 0 Z " fill="#FED2B3" transform="translate(89.96875,295.98828125)"/>
<path d="M0 0 C0 1.32 0 2.64 0 4 C-5.07054228 5.64414471 -9.43814447 6.23787218 -14.8125 6.375 C-22.86270755 6.7356374 -30.17105911 7.94449531 -36.125 13.75 C-37.053125 14.86375 -37.053125 14.86375 -38 16 C-38.99 15.67 -39.98 15.34 -41 15 C-42.62280702 4.93421053 -42.62280702 4.93421053 -40 1 C-35.94111372 -1.04073874 -31.77470143 -1.6131515 -27.3125 -2.125 C-26.60279053 -2.2077417 -25.89308105 -2.2904834 -25.16186523 -2.37573242 C-16.00160419 -3.38960274 -8.66889859 -3.51781392 0 0 Z " fill="#5C4A44" transform="translate(98,187)"/>
<path d="M0 0 C1.52367187 0.39832031 1.52367187 0.39832031 3.078125 0.8046875 C7.37466573 1.91530076 11.68350686 2.96990431 16 4 C16.97710937 4.23460937 17.95421875 4.46921875 18.9609375 4.7109375 C25.67970368 6.07045324 32.35590888 6.20250342 39.1875 6.25 C40.11449707 6.2593457 41.04149414 6.26869141 41.99658203 6.27832031 C47.95343649 6.25065855 53.22946027 5.48536875 59 4 C59.99 5.98 60.98 7.96 62 10 C43.81877584 16.20822288 24.23275258 13.85544955 7 6 C4.41894636 4.48098646 2.30545404 2.93014757 0 1 C0 0.67 0 0.34 0 0 Z " fill="#D4E5E8" transform="translate(191,330)"/>
<path d="M0 0 C2.97 1.65 5.94 3.3 9 5 C-1.7145222 16.42882368 -16.1518037 25.8178043 -32 28 C-34.30078125 27.5625 -34.30078125 27.5625 -36 27 C-35.41734375 26.74347656 -34.8346875 26.48695313 -34.234375 26.22265625 C-21.05398078 20.06766083 -10.15587049 10.27127811 0 0 Z " fill="#D4E5E8" transform="translate(265,353)"/>
<path d="M0 0 C3.72666197 3.9751061 5.4988031 7.61980475 6 13 C5.3729615 17.18025667 4.59393952 19.32121198 1.8125 22.5 C-1.99861748 24.53259599 -3.87674195 24.15740577 -8 23 C-11.4375 21.1875 -11.4375 21.1875 -14 19 C-14 15 -14 15 -12.4609375 13.10546875 C-11.77257812 12.47253906 -11.08421875 11.83960938 -10.375 11.1875 C-6.63497065 7.64046149 -3.29883577 3.95860292 0 0 Z " fill="#F9C19B" transform="translate(390,265)"/>
<path d="M0 0 C0.62003906 0.43570312 1.24007813 0.87140625 1.87890625 1.3203125 C9.54612442 6.47643302 17.38497231 9.82604243 26 13 C23.00452475 17.49321287 19.13060817 17.93231757 14 19 C8.94575362 19.68720017 4.65390363 20.00247602 0.4375 16.8125 C-3.08517888 12.74787053 -3.08517888 12.74787053 -3 9 C-2.1715247 5.92946341 -1.14384839 2.96625091 0 0 Z " fill="#F8C29D" transform="translate(302,282)"/>
<path d="M0 0 C2 2 2 2 2.0625 5.5625 C1.24091036 11.11076587 -2.22863012 15.03100375 -6 19 C-9 21 -9 21 -11.5625 20.75 C-14 20 -14 20 -16 18 C-16.31452867 10.6085762 -11.58957952 5.42490176 -7 0 C-4.29393021 -1.35303489 -2.8671629 -0.7884698 0 0 Z " fill="#E596AC" transform="translate(326,250)"/>
<path d="M0 0 C0.99 0.33 1.98 0.66 3 1 C1.69119507 5.58420796 -0.10209606 8.92722076 -2.9375 12.75 C-3.97197266 14.16539062 -3.97197266 14.16539062 -5.02734375 15.609375 C-7 18 -7 18 -10 20 C-12.39707309 16.40439036 -13.07017035 13.25700148 -13 9 C-11.09992189 1.42914615 -7.58461947 -0.4063189 0 0 Z " fill="#F9C19B" transform="translate(310,200)"/>
<path d="M0 0 C0.99 0.33 1.98 0.66 3 1 C2.54738642 2.43931117 2.08767021 3.87638999 1.625 5.3125 C1.36976563 6.11300781 1.11453125 6.91351563 0.8515625 7.73828125 C0 10 0 10 -2 13 C-2.66 13 -3.32 13 -4 13 C-3.50269348 8.02693484 -2.44697666 4.36200187 0 0 Z " fill="#A5834A" transform="translate(367,223)"/>
<path d="M0 0 C0.99 0 1.98 0 3 0 C2.45820789 4.55105375 1.37999159 8.06386006 -1 12 C-1.99 12.33 -2.98 12.66 -4 13 C-3.71517632 11.58194169 -3.42181856 10.16559621 -3.125 8.75 C-2.96257812 7.96109375 -2.80015625 7.1721875 -2.6328125 6.359375 C-2.00849925 4.03168856 -1.15161458 2.10968048 0 0 Z " fill="#A28149" transform="translate(329,193)"/>
<path d="M0 0 C1.67542976 0.28604898 3.34385343 0.61781233 5 1 C5 2.65 5 4.3 5 6 C2.625 6.625 2.625 6.625 0 7 C-0.66 6.34 -1.32 5.68 -2 5 C-1.46428571 1.46428571 -1.46428571 1.46428571 0 0 Z " fill="#F9FBFD" transform="translate(366,242)"/>
<path d="M0 0 C2.125 0.375 2.125 0.375 4 1 C4.38218767 2.65614657 4.71395102 4.32457024 5 6 C4 7 4 7 1.4375 7.0625 C0.2309375 7.0315625 0.2309375 7.0315625 -1 7 C-1.625 4.625 -1.625 4.625 -2 2 C-1.34 1.34 -0.68 0.68 0 0 Z " fill="#F9FAFD" transform="translate(330,210)"/>
<path d="M0 0 C-1.25618074 3.76854223 -2.66014706 4.07958456 -6 6 C-6.33 6.66 -6.66 7.32 -7 8 C-7.99 7.67 -8.98 7.34 -10 7 C-9.02640613 3.72518425 -8.30933359 2.23794891 -5.5625 0.125 C-3 -1 -3 -1 0 0 Z " fill="#A5844D" transform="translate(381,230)"/>
<path d="M0 0 C-0.0625 1.75 -0.0625 1.75 -1 4 C-3.24164322 5.59501537 -5.53566643 6.74543018 -8 8 C-8 6.68 -8 5.36 -8 4 C-3.88888889 0 -3.88888889 0 0 0 Z " fill="#A18148" transform="translate(343,199)"/>
</svg>
